{"title":"Honey 2 2011 DVDrip English Klam","uid":6763739,"size":1686897529,"categoryP":"video","categoryS":"movies","magnet":"?xt=urn:btih:b46132adf7605b3c47898c092ec2eba203c75fdd&amp;dn=Honey+2+2011+DVDrip+English+Klam&amp;tr=udp%3A%2F%2Ftracker.openbittorrent.com%3A80&amp;tr=udp%3A%2F%2Fopen.demonii.com%3A1337&amp;tr=udp%3A%2F%2Ftracker.coppersurfer.tk%3A6969&amp;tr=udp%3A%2F%2Fexodus.desync.com%3A6969","seeders":0,"leechers":1,"uploader":"Klambake","files":-1,"time":1319289816,"description":"With: Katerina Graham, Seychelle Gabriel en Mario LÃƒÂ³pez\n\nNadat ze in aanraking is gekomen met de politie probeert de 17-jarige Maria Bennett te ontsnappen aan de harde wereld in de Bronx . Ze wil in de voetsporen treden van de beroemde choreograaf Honey Daniels en ze stort zich helemaal op haar enige talent: streetdance. Brandon, die een groep getalenteerde, maar ongedisciplineerde dansers begeleidt, ziet haar dansen. Hij vraagt haar om hem te helpen de dansgroep &quot;HD&quot; te trainen voor de grote danscompetitie &quot;Dance or Die&quot;. &quot;HD&quot; moet de strijd aangaan met de veelbelovende dans crew 718, geleid door Maria's ex-vriend, de charismatische Luis. Terwijl hij probeert haar te verleiden om terug te keren naar het harde straatleven, ontdekt Maria dat dansen haar enige passie en redding is...\n\nRecently released from juvenile detention, talented dancer Maria Ramirez finds an outlet for her passion with a new dance crew. \n\n------------------ Dutch Friends ------------------\nYou can find my Friends at: http://www.Film-Test.nl \n------ They got my dutch subs ----- and more ------\n\nGeneral:\n\nComplete name                    : Honey 2\\Honey 2.avi\nFormat                           : AVI\nFormat/Info                      : Audio Video Interleave\nFile size                        : 1.57 GiB\nDuration                         : 1h 50mn\nOverall bit rate                 : 2 030 Kbps\n\nVideo:\n\nFormat                           : MPEG-4 Visual\nFormat profile                   : Simple@L3\nFormat settings, BVOP            : No\nFormat settings, QPel            : No\nFormat settings, GMC             : No warppoints\nFormat settings, Matrix          : Default (H.263)\nCodec ID                         : XVID\nCodec ID/Hint                    : XviD\nDuration                         : 1h 50mn\nBit rate                         : 1 571 Kbps\nWidth                            : 704 pixels\nHeight                           : 396 pixels\nDisplay aspect ratio             : 16:9\nFrame rate                       : 23.976 fps\nColor space                      : YUV\nChroma subsampling               : 4:2:0\nBit depth                        : 8 bits\nScan type                        : Progressive\nCompression mode                 : Lossy\nBits/(Pixel*Frame)               : 0.235\nStream size                      : 1.21 GiB (77%)\nWriting library                  : XviD 1.1.2 (UTC 2006-11-01)\n\nAudio:\n\nFormat                           : AC-3\nFormat/Info                      : Audio Coding 3\nMode extension                   : CM (complete main)\nCodec ID                         : 2000\nDuration                         : 1h 50mn\nBit rate mode                    : Constant\nBit rate                         : 448 Kbps\nChannel(s)                       : 6 channels\nChannel positions                : Front: L C R, Side: L R, LFE\nSampling rate                    : 48.0 KHz\nBit depth                        : 16 bits\nCompression mode                 : Lossy\nStream size                      : 354 MiB (22%)\nAlignment                        : Aligned on interleaves\nInterleave, duration             : 32 ms (0.77 video frame)\nInterleave, preload duration     : 64 ms\n\n\n","torrent":{"xt":"urn:btih:b46132adf7605b3c47898c092ec2eba203c75fdd","amp;dn":"Honey+2+2011+DVDrip+English+Klam","amp;tr":["udp%3A%2F%2Ftracker.openbittorrent.com%3A80","udp%3A%2F%2Fopen.demonii.com%3A1337","udp%3A%2F%2Ftracker.coppersurfer.tk%3A6969","udp%3A%2F%2Fexodus.desync.com%3A6969"],"infoHash":"b46132adf7605b3c47898c092ec2eba203c75fdd","infoHashBuffer":{"type":"Buffer","data":[180,97,50,173,247,96,91,60,71,137,140,9,46,194,235,162,3,199,95,221]},"announce":[],"urlList":[]}}